<svg xmlns="http://www.w3.org/2000/svg" fill="#fff" viewBox="0 0 56 56">
  <path d="M26.8 31.3h-6.5V36h6.5zm0 8.4h-6.5v4.7h6.5zm0-16.8h-6.5v4.7h6.5zm0-8.6h-6.5V19h6.5z"/>
  <path d="M53 52V25.4c0-2.3-1.9-4.4-4.2-4.4h-6.3v-9.8c0-2.3-1.9-4.1-4.2-4.2h-4.7V0h-2.8v7H18.7a4.2 4.2 0 00-4.2 4.2V21H8a4.3 4.3 0 00-4.2 4.4V52H0v4h56v-4zm-10.3-7.9v-4.7h6.5v4.7zm6.5-7.2h-6.5v-4.7h6.5zm-6.5-12h6.5v4.7h-6.5zM18 11.3c0-.2.2-.7.7-.7h19.6c.2 0 .7.2.7.7v40.6H18zm-4 32.9H7.5v-4.7H14zm0-7.2H7.5v-4.7H14zM7.5 25H14v4.7H7.5z"/>
  <path d="M36.2 31.3h-6.5V36h6.5zm0 8.4h-6.5v4.7h6.5zm0-16.8h-6.5v4.7h6.5zm0-8.6h-6.5V19h6.5z"/>
</svg>